<svg width="40" height="40" viewBox="0 0 40 40" fill="none" xmlns="http://www.w3.org/2000/svg">
<path d="M18.8991 15.0432V7.28125C16.7997 7.4658 14.8497 8.15791 13.1672 9.23597C13.9566 10.9297 14.5687 12.7227 14.9706 14.5926C16.2472 14.8492 17.5589 14.9998 18.8991 15.0432Z" fill="#6EEB83"/>
<path d="M13.3256 14.1967C12.9772 12.7919 12.4939 11.444 11.9113 10.1484C10.9954 10.9058 10.1893 11.7881 9.51587 12.7707C10.7356 13.3452 12.0038 13.832 13.3256 14.1967Z" fill="#6EEB83"/>
<path d="M9.51538 27.191C10.1888 28.1703 10.9932 29.0526 11.9075 29.8083C12.4917 28.5167 12.9739 27.1682 13.3217 25.7661C12.0022 26.1303 10.7345 26.6171 9.51538 27.191Z" fill="#6EEB83"/>
<path d="M14.0174 20.6538H7.29932C7.39689 22.5316 7.90307 24.3006 8.72701 25.8766C10.294 25.126 11.9469 24.5293 13.6701 24.1099C13.8669 22.9833 13.9839 21.8278 14.0174 20.6538Z" fill="#6EEB83"/>
<path d="M30.3757 27.4244C29.2256 26.8494 28.0271 26.3537 26.7822 25.9683C27.1245 27.2995 27.59 28.5805 28.1463 29.8125C28.987 29.1165 29.7351 28.3145 30.3757 27.4244Z" fill="#6EEB83"/>
<path d="M30.3756 12.5364C29.7357 11.6485 28.9853 10.8426 28.1424 10.1455C27.5861 11.3785 27.1206 12.6629 26.7783 13.9958C28.0254 13.6093 29.2234 13.113 30.3756 12.5364Z" fill="#6EEB83"/>
<path d="M26.0432 19.1374H32.7445C32.6196 17.2206 32.075 15.4209 31.1948 13.8281C29.6818 14.5938 28.0852 15.2173 26.4178 15.6736C26.2127 16.8045 26.0839 17.9612 26.0432 19.1374Z" fill="#6EEB83"/>
<path d="M25.1262 25.5244C23.7041 25.1943 22.2357 24.9884 20.7322 24.9243V32.7125C22.9955 32.5882 25.0999 31.8738 26.8961 30.7216C26.1285 29.0764 25.5297 27.3358 25.1262 25.5244Z" fill="#6EEB83"/>
<path d="M39.7895 16.1226L39.2666 14.6246L37.2553 13.9777L37.2269 13.8996L38.3975 12.1379L37.8763 10.6416C37.6071 9.87193 36.7636 9.46593 35.9932 9.73587L32.1099 11.0944C33.823 13.4306 34.8738 16.2743 34.9993 19.3623L38.8854 18.0031C39.6541 17.7343 40.0599 16.8917 39.7895 16.1226Z" fill="#6EEB83"/>
<path d="M31.7477 10.6096L34.0768 7.22551C34.54 6.55345 34.3706 5.63382 33.7005 5.17205L32.3922 4.27192L30.3858 4.93837L30.3172 4.89097L30.2247 2.77674L28.9202 1.87829C28.2485 1.41484 27.3292 1.58494 26.8654 2.25696L24.5408 5.63271C27.4156 6.54732 29.9103 8.30405 31.7477 10.6096Z" fill="#6EEB83"/>
<path d="M19.9799 4.92558C21.5035 4.92558 22.973 5.15647 24.3583 5.57753V1.47734C24.3583 0.661987 23.6977 0 22.8827 0H21.2995L20.0223 1.68871H19.9393L18.6644 0H17.0805C16.2639 0 15.6033 0.661987 15.6033 1.47734V5.57697C16.9886 5.15647 18.457 4.92558 19.9799 4.92558Z" fill="#6EEB83"/>
<path d="M7.96049 10.9498C9.73661 8.58797 12.1844 6.76986 15.0275 5.77771L12.6036 2.45774C12.122 1.79854 11.1971 1.65577 10.5393 2.13651L9.26109 3.07232L9.22594 5.18711L9.15903 5.2373L7.13267 4.62662L5.85438 5.56132C5.19657 6.04374 5.05219 6.96895 5.5344 7.62816L7.96049 10.9498Z" fill="#6EEB83"/>
<path d="M7.59756 11.4353L3.68917 10.1894C2.91095 9.94126 2.08144 10.3713 1.83392 11.1481L1.35171 12.6573L2.57257 14.3878L2.54636 14.4664L0.551192 15.1702L0.0700981 16.6799C-0.177418 17.4579 0.251275 18.2878 1.0295 18.5371L4.94069 19.7841C4.98138 16.6844 5.95416 13.8128 7.59756 11.4353Z" fill="#6EEB83"/>
<path d="M4.95127 20.3896L1.05178 21.693C0.277459 21.9512 -0.138968 22.7889 0.119696 23.5635L0.620858 25.0665L2.62607 25.7419L2.65116 25.8216L1.45539 27.5655L1.95767 29.0696C2.21633 29.8431 3.05365 30.2603 3.82685 30.001L7.72356 28.6993C6.04613 26.3408 5.03489 23.4838 4.95127 20.3896Z" fill="#6EEB83"/>
<path d="M8.08752 29.1851L5.70771 32.539C5.23498 33.2032 5.39219 34.1274 6.05725 34.5975L7.34892 35.5138L9.36637 34.8786L9.43327 34.9254L9.49849 37.0396L10.7901 37.9576C11.4552 38.4294 12.3778 38.2721 12.8488 37.608L15.2242 34.2584C12.3656 33.3053 9.8943 31.5179 8.08752 29.1851Z" fill="#6EEB83"/>
<path d="M19.9801 35.0384C18.5301 35.0384 17.1331 34.8215 15.8064 34.4395L15.8638 38.5435C15.8749 39.3595 16.545 40.0131 17.36 39.9997L18.9455 39.979L20.1981 38.2742H20.2795L21.5806 39.9417L23.1627 39.92C23.9794 39.9083 24.6305 39.2379 24.6177 38.4209L24.5614 34.3218C23.117 34.7847 21.5784 35.0384 19.9801 35.0384Z" fill="#6EEB83"/>
<path d="M32.1296 28.8438C30.3847 31.2335 27.9592 33.0823 25.1328 34.1146L27.6046 37.3988C28.0958 38.0514 29.0206 38.1829 29.6723 37.6916L30.9394 36.7396L30.945 34.6209L31.0102 34.5752L33.0455 35.1536L34.3093 34.2005C34.961 33.7102 35.0909 32.7833 34.6014 32.1319L32.1296 28.8438Z" fill="#6EEB83"/>
<path d="M38.9525 21.1602L35.0308 19.9712C35.0308 19.9745 35.0319 19.9779 35.0319 19.9813C35.0319 23.0809 34.0936 25.9597 32.4893 28.354L36.4105 29.5435C37.1915 29.7811 38.0143 29.34 38.2506 28.5597L38.7123 27.0422L37.4674 25.3312L37.492 25.2515L39.4777 24.5203L39.9354 23.0028C40.1739 22.2232 39.7324 21.3989 38.9525 21.1602Z" fill="#6EEB83"/>
</svg>
